<svg xmlns="http://www.w3.org/2000/svg" width="826.429" height="826.428" viewBox="0 0 826.429 826.428">
  <path id="maps_ugc_FILL1_wght400_GRAD0_opsz48" d="M56,964l57-203a387.143,387.143,0,0,1-29-88.626A481.348,481.348,0,0,1,75,579q0-84,31.5-157A406.65,406.65,0,0,1,321,207.5Q394,176,478,176t157,31.5A406.65,406.65,0,0,1,849.5,422Q881,495,881,579T849.5,736A406.65,406.65,0,0,1,635,950.5Q562,982,478,982a481.349,481.349,0,0,1-93.374-9A387.143,387.143,0,0,1,296,944L93,1001q-17,5-29.5-7.5T56,964Z" transform="translate(-54.571 -176)" fill="#3c3e40"/>
</svg>
