<svg xmlns="http://www.w3.org/2000/svg" width="22.377" height="22.373" viewBox="0 0 22.377 22.373">
  <g id="Layer_x0020_1" transform="translate(36.35)">
    <path id="Path_34" data-name="Path 34" d="M18.174,19.929a11.054,11.054,0,0,0,1.883-1.916,11.675,11.675,0,0,0,.762-1.117,11.562,11.562,0,0,0,1.548-5.112V10.549q-.018-.309-.056-.616c-.027-.217-.114-.627-.119-.843H11.4v3.89c0,.744-.045.568.743.568h5.244c-.078.163-.145.356-.219.524A6.806,6.806,0,0,1,15.017,16.6c-.164.125-.313.2-.47.312a8.013,8.013,0,0,1-1.266.574,6.753,6.753,0,0,1-5.87-.83c-.184-.136-.344-.266-.518-.4a5.012,5.012,0,0,1-.47-.448A6.229,6.229,0,0,1,4.97,13.527a6.92,6.92,0,0,1-.439-2.208A6.94,6.94,0,0,1,4.742,9.56a4.574,4.574,0,0,0,.14-.554l.28-.643a7.086,7.086,0,0,1,1.176-1.71c.157-.156.3-.315.459-.458A6.807,6.807,0,0,1,8.571,5.084a6.683,6.683,0,0,1,6.1.466l.9-.713c.33-.266,2.63-2.119,2.723-2.259a5.2,5.2,0,0,0-.883-.69A11.415,11.415,0,0,0,11.518,0h-.8a10.809,10.809,0,0,0-5.65,1.8c-.171.115-.3.2-.464.322s-.323.228-.472.359c-.29.255-.559.469-.832.742A11.53,11.53,0,0,0,1.248,6.031,9.88,9.88,0,0,0,.34,8.347a10.822,10.822,0,0,0-.35,2.3v1.008A11.367,11.367,0,0,0,.777,15.34c.165.415.35.76.525,1.149a13.085,13.085,0,0,0,1.273,1.86,10.73,10.73,0,0,0,2.029,1.9,10.261,10.261,0,0,0,1.461.9l1.086.487a10.572,10.572,0,0,0,1.186.387,10.914,10.914,0,0,0,2.177.35h1.263a11.223,11.223,0,0,0,6.4-2.448Z" transform="translate(-36.34)" fill="#fff" fill-rule="evenodd"/>
  </g>
</svg>
